<?xml version="1.0" encoding="utf-8"?>
<!-- Generator: Adobe Illustrator 23.1.0, SVG Export Plug-In . SVG Version: 6.00 Build 0)  -->
<svg version="1.1" id="Layer_1" xmlns="http://www.w3.org/2000/svg" x="0px" y="0px"
     viewBox="0 0 48 48" style="enable-background:new 0 0 48 48;" xml:space="preserve">
<style type="text/css">
	.st0 {
        fill: none;
        stroke: #000000;
        stroke-linecap: round;
        stroke-linejoin: round;
        stroke-miterlimit: 10;
    }

    .st1 {
        fill: none;
    }
</style>
    <g>
	<path d="M16.1,31.8c1.7,2.1,3.8,4.6,7.9,4.6c4.1,0,6.2-2.4,7.9-4.6c1.7,0.5,5.6,2,8.7,5.6c3.5,4.1,3.4,6.9,3.4,8.2
		c0,0.2,0,0.3,0,0.4c0,0.1,0,0.2,0,0.3c0,0-0.1,0-0.1,0c-0.8,0.1-8.6,0.2-19.8,0.2c-11.2,0-19-0.1-19.8-0.2c-0.1,0-0.1,0-0.1,0
		c0-0.1,0-0.2,0-0.3c0-0.1,0-0.3,0-0.4c0-1.3-0.1-4,3.4-8.2C10.5,33.8,14.4,32.3,16.1,31.8 M31.3,30.1c-1.7,2.2-3.5,4.7-7.3,4.7
		c-3.8,0-5.6-2.5-7.3-4.7c0,0-5.9,1-10.4,6.4c-4.3,5-3.7,8.4-3.7,9.6s0.4,1.7,1.5,1.8C5,48,15,48,24,48c9,0,19,0,20-0.2
		c1-0.1,1.5-0.7,1.5-1.8s0.6-4.5-3.7-9.6C37.2,31.2,31.3,30.1,31.3,30.1L31.3,30.1z"/>
</g>
    <g>
	<path d="M24,1.5c4.2,0,6.4,1.2,7.9,4.4c1.3,2.6,0.6,5.4,0.5,5.4c-0.1,0.5,0,0.9,0.3,1.3c0.2,0.3,0.5,0.5,0.9,0.6
		c0.2,0.2,0.4,0.8,0.4,1.9c-0.1,1.1-0.5,1.8-0.6,1.8c-0.5,0.2-0.9,0.7-0.9,1.2c-0.8,5.5-4.3,9.4-8.5,9.4c-4.2,0-7.7-3.9-8.5-9.4
		c-0.1-0.5-0.4-1-0.9-1.2c-0.1-0.1-0.6-0.7-0.6-1.9c-0.1-1,0.2-1.7,0.4-1.9c0.4-0.1,0.7-0.3,0.9-0.6c0.2-0.4,0.3-0.8,0.2-1.2
		c0,0-0.7-2.8,0.5-5.4C17.6,2.7,19.8,1.5,24,1.5 M14.5,13.1L14.5,13.1L14.5,13.1 M24,0c-4.7,0-7.5,1.5-9.3,5.2
		c-1.5,3.2-0.6,6.4-0.6,6.4c-1,0.1-1.6,1.6-1.6,3.4c0.1,1.6,0.7,2.8,1.5,3.2c0.8,6,4.8,10.7,9.9,10.7c5.2,0,9.1-4.7,9.9-10.7
		c0.8-0.3,1.4-1.6,1.5-3.2c0.1-1.8-0.6-3.3-1.6-3.4h0c0,0,0.9-3.2-0.6-6.4C31.5,1.5,28.7,0,24,0L24,0z"/>
</g>
    <path class="st0" d="M14.5,12c0,0,0.1,0.1,0.2,0.2c0.2,0.2,0.2-0.9,1.2-1.9c0.3-0.3,0.9-0.6,1.3-0.6c0.8,0,1,0.6,1,0.6
	s0.3-0.9,1.2-1.1c0.7-0.1,1.4,0.2,2.1,0.6c1.7,0.8,3.4,1.2,5.1,1.3c0.6,0.1,2.5-1.4,2.5-1.4s-0.3,1.8,0.3,1.8c1.4-0.2,3.3-1,3.3-1
	s0.2,1.1,0.7,1.6l0.1-0.1"/>
    <g>
	<rect class="st1" width="48" height="48"/>
</g>
</svg>
