<?xml version="1.0" encoding="utf-8"?>
<!-- Generator: Adobe Illustrator 23.1.0, SVG Export Plug-In . SVG Version: 6.00 Build 0)  -->
<svg version="1.1" id="Layer_1" xmlns="http://www.w3.org/2000/svg" x="0px" y="0px"
     viewBox="0 0 48 48" style="enable-background:new 0 0 48 48;" xml:space="preserve">
<style type="text/css">
	.st0 {
        fill: none;
    }

    .st1 {
        fill: none;
        stroke: #000000;
        stroke-width: 0.5;
        stroke-linecap: round;
        stroke-linejoin: round;
        stroke-miterlimit: 10;
    }

    .st2 {
        fill: none;
        stroke: #000000;
        stroke-width: 1.5;
        stroke-linecap: round;
        stroke-linejoin: round;
        stroke-miterlimit: 10;
    }

    .st3 {
        fill: none;
        stroke: #000000;
        stroke-linecap: round;
        stroke-linejoin: round;
        stroke-miterlimit: 10;
    }

    .st4 {
        fill: none;
        stroke: #000000;
        stroke-width: 0.75;
        stroke-linecap: round;
        stroke-linejoin: round;
        stroke-miterlimit: 10;
    }
</style>
    <g>
	<rect class="st0" width="48" height="48"/>
</g>
    <g>
	<line class="st1" x1="12" y1="35.5" x2="13.6" y2="33.9"/>
        <line class="st1" x1="12" y1="37.7" x2="15.7" y2="34"/>
</g>
    <polyline class="st2" points="45.3,44.6 42.8,44.6 42.8,7 21.1,7 21.1,3.2 9.8,3.2 9.8,7 5.2,7 5.2,44.6 2.7,44.6 "/>
    <polyline class="st3" points="37.9,44.5 37.9,31.9 10.1,31.9 10.1,44.5 "/>
    <line class="st4" x1="24" y1="31.9" x2="24" y2="44.7"/>
    <line class="st3" x1="5.2" y1="44.9" x2="42.8" y2="44.9"/>
    <rect x="10.1" y="22.9" class="st3" width="6.2" height="4.8"/>
    <rect x="31.5" y="22.9" class="st3" width="6.2" height="4.8"/>
    <rect x="20.9" y="22.9" class="st3" width="6.2" height="4.8"/>
    <line class="st4" x1="13.2" y1="22.9" x2="13.2" y2="27.7"/>
    <line class="st4" x1="24" y1="22.9" x2="24" y2="27.7"/>
    <line class="st4" x1="34.7" y1="22.9" x2="34.7" y2="27.7"/>
    <line class="st3" x1="5.2" y1="15.3" x2="10.1" y2="15.3"/>
    <line class="st3" x1="5.2" y1="11.3" x2="10.1" y2="11.3"/>
    <line class="st3" x1="20.9" y1="15.3" x2="42.8" y2="15.3"/>
    <line class="st3" x1="20.9" y1="11.3" x2="42.8" y2="11.3"/>
    <g>
	<line class="st4" x1="5.2" y1="12.5" x2="8.1" y2="15.3"/>
        <line class="st4" x1="6.7" y1="11.3" x2="10.1" y2="14.6"/>
        <line class="st4" x1="9.5" y1="11.3" x2="10.1" y2="11.8"/>
        <line class="st4" x1="20.9" y1="14.3" x2="21.9" y2="15.3"/>
        <line class="st4" x1="20.9" y1="11.6" x2="24.7" y2="15.3"/>
        <line class="st4" x1="23.3" y1="11.3" x2="27.4" y2="15.3"/>
        <line class="st4" x1="26.1" y1="11.3" x2="30.2" y2="15.3"/>
        <line class="st4" x1="28.9" y1="11.3" x2="33" y2="15.3"/>
        <line class="st4" x1="31.6" y1="11.3" x2="35.7" y2="15.3"/>
        <line class="st4" x1="34.4" y1="11.3" x2="38.5" y2="15.3"/>
        <line class="st4" x1="37.2" y1="11.3" x2="41.3" y2="15.3"/>
        <line class="st4" x1="39.9" y1="11.3" x2="42.8" y2="14.1"/>
</g>
    <g>
	<line class="st4" x1="42.8" y1="12.5" x2="39.9" y2="15.3"/>
        <line class="st4" x1="41.3" y1="11.3" x2="37.2" y2="15.3"/>
        <line class="st4" x1="38.5" y1="11.3" x2="34.4" y2="15.3"/>
        <line class="st4" x1="35.7" y1="11.3" x2="31.6" y2="15.3"/>
        <line class="st4" x1="33" y1="11.3" x2="28.9" y2="15.3"/>
        <line class="st4" x1="30.2" y1="11.3" x2="26.1" y2="15.3"/>
        <line class="st4" x1="27.4" y1="11.3" x2="23.3" y2="15.3"/>
        <line class="st4" x1="24.7" y1="11.3" x2="20.9" y2="15"/>
        <line class="st4" x1="21.9" y1="11.3" x2="20.9" y2="12.3"/>
        <line class="st4" x1="10.1" y1="14.8" x2="9.5" y2="15.3"/>
        <line class="st4" x1="10.1" y1="12" x2="6.7" y2="15.3"/>
        <line class="st4" x1="8.1" y1="11.3" x2="5.2" y2="14.1"/>
</g>
    <rect x="10.1" y="3.2" class="st3" width="10.8" height="15.3"/>
</svg>
